<svg width="41" height="41" viewBox="0 0 41 41" fill="none" xmlns="http://www.w3.org/2000/svg">
<g clip-path="url(#clip0_4_16)">
<path fill-rule="evenodd" clip-rule="evenodd" d="M20.5 0C31.8221 0 41 9.40935 41 21.0185C41 30.303 35.1329 38.1791 26.9923 40.961C25.953 41.168 25.584 40.5116 25.584 39.952C25.584 39.2591 25.6086 36.9959 25.6086 34.1833C25.6086 32.2235 24.9526 30.9444 24.2167 30.2925C28.782 29.7718 33.579 27.9943 33.579 19.9214C33.579 17.6254 32.7836 15.7518 31.4675 14.2799C31.6807 13.749 32.3838 11.6111 31.2666 8.7165C31.2666 8.7165 29.5487 8.15331 25.6352 10.8716C23.9973 10.4063 22.2425 10.1721 20.5 10.1639C18.7575 10.1721 17.0048 10.4063 15.3689 10.8716C11.4513 8.15331 9.7293 8.7165 9.7293 8.7165C8.61615 11.6111 9.3193 13.749 9.53045 14.2799C8.2205 15.7518 7.41896 17.6254 7.41896 19.9214C7.41896 27.9738 12.2057 29.7786 16.7588 30.3096C16.1725 30.8344 15.6415 31.7602 15.457 33.1193C14.2885 33.6564 11.3201 34.586 9.49149 31.3736C9.49149 31.3736 8.40705 29.3541 6.34885 29.2065C6.34885 29.2065 4.3501 29.1799 6.20945 30.4837C6.20945 30.4837 7.5522 31.1295 8.48495 33.5587C8.48495 33.5587 9.68831 37.3102 15.3914 36.0392C15.4017 37.796 15.4201 39.4518 15.4201 39.952C15.4201 40.5075 15.0429 41.1577 14.0199 40.963C5.87324 38.1852 0 30.305 0 21.0185C0 9.40935 9.1799 0 20.5 0Z" fill="white"/>
</g>
<defs>
<clipPath id="clip0_4_16">
<rect width="41" height="41" fill="white"/>
</clipPath>
</defs>
</svg>
